<svg xmlns="http://www.w3.org/2000/svg" width="64" height="64" viewBox="0 0 64 64">
  <defs>
    <linearGradient id="g1" x1="0" y1="0" x2="1" y2="1">
      <stop offset="0%" stop-color="#5eb867"/>
      <stop offset="100%" stop-color="#3f8f53"/>
    </linearGradient>
  </defs>
  <rect width="64" height="64" fill="url(#g1)"/>
  <path d="M0 14 L8 8 L16 13 L24 7 L32 12 L40 8 L48 14 L56 9 L64 15 L64 64 L0 64 Z" fill="#488f57" opacity="0.55"/>
  <path d="M0 41 L7 36 L15 39 L24 34 L31 38 L40 33 L48 37 L56 32 L64 35" stroke="#315f3b" stroke-width="2" fill="none" opacity="0.35"/>
  <path d="M11 10 L15 6 L19 10 L15 13 Z" fill="#71d17f"/>
  <path d="M44 12 L49 7 L54 12 L49 15 Z" fill="#71d17f"/>
  <path d="M18 49 L22 44 L26 49 L22 52 Z" fill="#71d17f"/>
  <path d="M46 48 L50 43 L54 48 L50 52 Z" fill="#71d17f"/>
  <path d="M28 22 C25 18 22 16 19 18 C21 22 23 25 27 27 Z" fill="#a7e27f" opacity="0.9"/>
  <path d="M36 24 C40 18 44 17 46 20 C43 24 40 27 37 29 Z" fill="#a7e27f" opacity="0.9"/>
  <circle cx="13" cy="19" r="1.5" fill="#f3a2c2"/>
  <circle cx="51" cy="41" r="1.5" fill="#f3a2c2"/>
  <circle cx="27" cy="52" r="1.5" fill="#f3a2c2"/>
  <path d="M 0 61 L 64 61 L 64 64 L 0 64 Z" fill="#2f6e3f"/>
</svg>
