<svg xmlns="http://www.w3.org/2000/svg" width="64" height="64" viewBox="0 0 64 64">
  <ellipse cx="32" cy="58" rx="12" ry="3.2" fill="#244524" opacity="0.28"/>
  <rect x="28" y="34" width="8" height="22" rx="2" fill="#6f4b2f"/>
  <path d="M 28 34 C 30 29 34 29 36 34" stroke="#8a5a37" stroke-width="2" fill="none"/>
  <circle cx="32" cy="18" r="13" fill="#4c903f"/>
  <circle cx="22" cy="24" r="10" fill="#5fb24f"/>
  <circle cx="42" cy="24" r="10" fill="#5fb24f"/>
  <circle cx="31" cy="26" r="9" fill="#6ec65f" opacity="0.9"/>
  <path d="M18 20 C19 14 24 11 28 11 C27 17 25 22 21 26 Z" fill="#82d56d" opacity="0.7"/>
  <path d="M38 12 C43 14 45 18 46 23 C41 23 37 20 35 16 Z" fill="#82d56d" opacity="0.7"/>
  <circle cx="24" cy="18" r="2" fill="#f3b3cf"/>
  <circle cx="40" cy="16" r="2" fill="#f3b3cf"/>
</svg>
