<svg xmlns="http://www.w3.org/2000/svg" width="48" height="48" viewBox="0 0 48 48">
  <ellipse cx="24" cy="42" rx="12" ry="4" fill="#000" opacity="0.28"/>
  <path d="M 25 6 C 18 5 13 10 14 16 C 15 22 20 24 24 24 C 29 24 34 21 35 15 C 36 9 31 5 25 6 Z" fill="#f0cfad"/>
  <path d="M 16 7 C 12 10 11 15 12 19 C 13 22 16 24 17 25 C 16 20 18 15 21 11 C 23 8 28 7 32 9 C 31 5 22 4 16 7 Z" fill="#f4e8d7"/>
  <path d="M 15 18 L 20 17 L 19 21 L 14 22 Z" fill="#d75b4d"/>
  <path d="M 28 17 L 33 18 L 34 22 L 29 21 Z" fill="#d75b4d"/>
  <path d="M 16 19 L 31 19 L 30 33 L 18 33 Z" fill="#2d3a49"/>
  <path d="M 17 23 L 31 23 L 30 28 L 18 28 Z" fill="#b23c42"/>
  <path d="M 18 30 L 14 39 L 19 40 L 22 31 Z" fill="#4d3a2f"/>
  <path d="M 30 30 L 26 39 L 31 40 L 34 31 Z" fill="#4d3a2f"/>
  <path d="M 28 28 L 43 16 L 45 18 L 30 30 Z" fill="#8ee8ff"/>
  <path d="M 26 28 L 31 24 L 33 26 L 28 30 Z" fill="#34414d"/>
  <path d="M 18 20 C 18 12 23 9 29 10 C 26 12 24 15 24 19 C 24 22 21 24 18 24 Z" fill="#2a221f" opacity="0.95"/>
  <circle cx="29" cy="15" r="1.5" fill="#1a1a1a"/>
</svg>
