<svg xmlns="http://www.w3.org/2000/svg" width="48" height="48" viewBox="0 0 48 48">
  <!-- Shadow -->
  <ellipse cx="24" cy="44" rx="14" ry="5" fill="#000" opacity="0.3"/>
  <!-- Fire/Energy Aura -->
  <path d="M 24 6 C 12 -2 4 14 16 20 C 16 32 32 32 32 20 C 44 14 36 -2 24 6 Z" fill="#ff5c33" opacity="0.8"/>
  <polygon points="16,14 24,0 32,14 24,28" fill="#ffd633"/>
  <!-- Wings -->
  <path d="M 18 18 L 0 10 L 6 26 Z" fill="#fff" opacity="0.7"/>
  <path d="M 30 18 L 48 10 L 42 26 Z" fill="#fff" opacity="0.7"/>
  <!-- Core Body -->
  <circle cx="24" cy="26" r="10" fill="#2d2230"/>
  <path d="M 16 26 Q 24 34 32 26" stroke="#4a364d" stroke-width="2" fill="none"/>
  <!-- Glowing Eye -->
  <circle cx="20" cy="24" r="3" fill="#ff2a55"/>
  <circle cx="19" cy="23" r="1" fill="#fff"/>
</svg>
