<svg xmlns="http://www.w3.org/2000/svg" width="40" height="28" viewBox="0 0 40 28">
  <ellipse cx="20" cy="21" rx="15" ry="6" fill="#18381c" opacity="0.28"/>
  <path d="M5 18 C7 10 13 5 20 5 C27 5 33 10 35 18 C33 23 27 26 20 26 C13 26 7 23 5 18 Z" fill="#4f9c53"/>
  <path d="M9 17 C10 11 15 8 20 8 C25 8 30 11 31 17 C29 20 24 22 20 22 C15 22 10 20 9 17 Z" fill="#71d574"/>
  <path d="M13 10 C14 8 17 6 20 6 C18 9 18 13 19 18 C16 18 14 15 13 10 Z" fill="#9de789" opacity="0.85"/>
  <circle cx="15" cy="14" r="1.6" fill="#1f2a1f"/>
  <circle cx="24" cy="14" r="1.6" fill="#1f2a1f"/>
  <path d="M15 18 Q20 21 25 18" stroke="#1f2a1f" stroke-width="1.4" fill="none"/>
  <path d="M8 19 C12 14 15 13 20 13 C25 13 28 14 32 19" stroke="#c6ffc9" stroke-width="1" fill="none" opacity="0.35"/>
</svg>
